<?xml version="1.0" standalone="no"?>
<!DOCTYPE svg PUBLIC "-//W3C//DTD SVG 20010904//EN"
 "http://www.w3.org/TR/2001/REC-SVG-20010904/DTD/svg10.dtd">
<svg version="1.0" xmlns="http://www.w3.org/2000/svg"
 width="250.000000pt" height="250.000000pt" viewBox="0 0 250.000000 250.000000"
 preserveAspectRatio="xMidYMid meet">
<metadata>
Created by potrace 1.14, written by Peter Selinger 2001-2017
</metadata>
<g transform="translate(0.000000,250.000000) scale(0.100000,-0.100000)"
fill="#000000" stroke="none">
<path d="M587 2283 c-3 -5 -33 -118 -67 -253 -60 -238 -66 -261 -76 -307 -2
-12 -9 -34 -14 -48 -5 -14 -7 -25 -4 -25 2 0 0 -8 -5 -17 -5 -10 -12 -35 -15
-57 -4 -21 -8 -41 -11 -45 -2 -4 -6 -18 -9 -32 -3 -13 -7 -34 -10 -46 -4 -13
-8 -31 -10 -40 -3 -10 -72 -285 -154 -610 -115 -456 -147 -596 -138 -608 6 -8
16 -11 22 -7 10 6 104 158 104 167 0 2 14 28 31 57 18 29 155 271 307 538 151
267 279 491 285 498 11 13 11 12 92 -248 13 -41 69 -219 125 -395 56 -176 120
-378 142 -450 47 -150 53 -165 74 -165 18 0 21 9 94 240 32 102 74 235 93 295
20 61 79 247 132 415 52 167 97 306 99 307 5 5 21 -18 53 -77 16 -30 50 -91
75 -135 61 -107 82 -145 138 -245 65 -117 315 -562 386 -689 32 -56 64 -105
72 -108 33 -13 34 15 2 143 -17 71 -33 136 -35 144 -2 8 -26 110 -55 225 -28
116 -53 219 -56 230 -2 11 -17 74 -33 140 -16 66 -63 260 -105 430 -200 818
-190 780 -210 780 -22 0 -25 -8 -105 -260 -33 -104 -77 -246 -99 -314 l-39
-124 -38 69 c-21 38 -55 98 -76 134 -20 36 -45 81 -56 100 -11 19 -42 75 -69
124 -27 49 -54 91 -61 93 -6 3 -25 -5 -42 -18 -38 -28 -95 -27 -134 2 -16 11
-34 18 -42 16 -7 -3 -77 -118 -155 -256 -78 -138 -143 -251 -145 -251 -2 0
-25 69 -52 153 -26 83 -75 237 -108 342 -43 136 -65 191 -77 193 -9 2 -18 -1
-21 -5z m1408 -493 c3 -14 8 -36 11 -49 3 -14 41 -171 85 -350 44 -179 82
-333 84 -341 9 -41 91 -382 121 -500 18 -74 31 -136 30 -138 -2 -2 -23 32 -46
75 -24 43 -52 94 -63 113 -187 330 -517 924 -517 929 0 3 36 121 81 261 44
140 88 278 96 305 8 28 18 54 21 59 4 7 60 -201 97 -364z m-1337 222 c24 -75
68 -214 98 -308 l54 -170 -116 -205 c-63 -112 -120 -211 -125 -219 -5 -8 -93
-163 -195 -345 -102 -181 -190 -334 -196 -340 -13 -14 -13 -16 107 465 59 234
109 432 111 440 2 8 48 195 104 414 55 220 100 401 100 403 0 2 3 3 8 3 4 0
26 -62 50 -138z m543 14 c34 -11 57 -12 85 -5 22 6 45 11 53 12 9 1 63 -85
147 -233 73 -129 133 -240 133 -245 1 -6 -60 -10 -166 -10 l-168 1 -3 207 -2
208 -23 -3 c-22 -3 -22 -5 -25 -205 -1 -112 -6 -204 -10 -204 -18 -3 -342 -4
-342 -1 0 2 62 113 138 248 75 134 137 244 137 244 0 0 21 -7 46 -14z m26
-1086 c1 -305 0 -550 -3 -545 -6 15 -241 758 -315 994 -16 51 -27 96 -25 100
2 3 80 6 173 6 l168 0 2 -555z m398 549 c3 -4 -26 -107 -66 -230 -103 -325
-120 -379 -201 -638 l-73 -233 -3 543 c-1 299 0 549 2 554 4 11 330 15 341 4z"/>
<path d="M1210 2277 c-37 -18 -60 -71 -49 -110 13 -44 40 -68 85 -74 34 -4 44
-1 72 25 84 78 -6 210 -108 159z m71 -47 c23 -13 26 -62 4 -80 -20 -17 -66 0
-76 28 -6 17 -3 28 11 42 23 23 33 24 61 10z"/>
</g>
</svg>
